<mxfile host="Electron" modified="2024-08-23T16:08:00.469Z" agent="Mozilla/5.0 (Windows NT 10.0; Win64; x64) AppleWebKit/537.36 (KHTML, like Gecko) draw.io/21.6.8 Chrome/114.0.5735.289 Electron/25.5.0 Safari/537.36" etag="dMFsAx1AHPKoEFWIlPyO" version="21.6.8" type="device">
  <diagram id="XUEiCGOCNzLGeNYdtEij" name="第 1 页">
    <mxGraphModel dx="810" dy="469" grid="1" gridSize="10" guides="1" tooltips="1" connect="1" arrows="1" fold="1" page="1" pageScale="1" pageWidth="827" pageHeight="1169" math="0" shadow="0">
      <root>
        <mxCell id="0" />
        <mxCell id="1" parent="0" />
        <mxCell id="UjvqswIDRni2z4nogmo8-1" value=":Client" style="shape=umlLifeline;perimeter=lifelinePerimeter;whiteSpace=wrap;html=1;container=1;collapsible=0;recursiveResize=0;outlineConnect=0;" parent="1" vertex="1">
          <mxGeometry x="80" y="40" width="100" height="1050" as="geometry" />
        </mxCell>
        <mxCell id="UjvqswIDRni2z4nogmo8-6" value="" style="html=1;points=[];perimeter=orthogonalPerimeter;" parent="UjvqswIDRni2z4nogmo8-1" vertex="1">
          <mxGeometry x="45" y="128" width="10" height="62" as="geometry" />
        </mxCell>
        <mxCell id="UjvqswIDRni2z4nogmo8-7" value="登录验证" style="edgeStyle=orthogonalEdgeStyle;html=1;align=left;spacingLeft=2;endArrow=block;rounded=0;entryX=1;entryY=0;" parent="UjvqswIDRni2z4nogmo8-1" target="UjvqswIDRni2z4nogmo8-6" edge="1">
          <mxGeometry relative="1" as="geometry">
            <mxPoint x="50" y="120" as="sourcePoint" />
            <Array as="points">
              <mxPoint x="80" y="120" />
            </Array>
          </mxGeometry>
        </mxCell>
        <mxCell id="AEDSpsAWkbBHVtcApewd-1" value="" style="html=1;points=[];perimeter=orthogonalPerimeter;" parent="UjvqswIDRni2z4nogmo8-1" vertex="1">
          <mxGeometry x="45" y="220" width="10" height="90" as="geometry" />
        </mxCell>
        <mxCell id="AEDSpsAWkbBHVtcApewd-2" value="匹配对局" style="edgeStyle=orthogonalEdgeStyle;html=1;align=left;spacingLeft=2;endArrow=block;rounded=0;entryX=1;entryY=0;" parent="UjvqswIDRni2z4nogmo8-1" target="AEDSpsAWkbBHVtcApewd-1" edge="1">
          <mxGeometry relative="1" as="geometry">
            <mxPoint x="50" y="210" as="sourcePoint" />
            <Array as="points">
              <mxPoint x="80" y="210" />
            </Array>
          </mxGeometry>
        </mxCell>
        <mxCell id="xCqQUK4sBfXE9FT-zBNv-62" value="" style="html=1;points=[];perimeter=orthogonalPerimeter;fontSize=7;align=left;" parent="UjvqswIDRni2z4nogmo8-1" vertex="1">
          <mxGeometry x="45" y="350" width="10" height="700" as="geometry" />
        </mxCell>
        <mxCell id="xCqQUK4sBfXE9FT-zBNv-63" value="" style="html=1;points=[];perimeter=orthogonalPerimeter;fontSize=7;align=left;" parent="UjvqswIDRni2z4nogmo8-1" vertex="1">
          <mxGeometry x="50" y="370" width="10" height="150" as="geometry" />
        </mxCell>
        <mxCell id="xCqQUK4sBfXE9FT-zBNv-64" value="等待入局展示队伍头像" style="edgeStyle=orthogonalEdgeStyle;html=1;align=left;spacingLeft=2;endArrow=block;rounded=0;entryX=1;entryY=0;fontSize=7;" parent="UjvqswIDRni2z4nogmo8-1" target="xCqQUK4sBfXE9FT-zBNv-63" edge="1">
          <mxGeometry relative="1" as="geometry">
            <mxPoint x="55" y="360" as="sourcePoint" />
            <Array as="points">
              <mxPoint x="85" y="360" />
            </Array>
          </mxGeometry>
        </mxCell>
        <mxCell id="xCqQUK4sBfXE9FT-zBNv-68" value="" style="html=1;points=[];perimeter=orthogonalPerimeter;fontSize=7;align=left;" parent="UjvqswIDRni2z4nogmo8-1" vertex="1">
          <mxGeometry x="50" y="585" width="10" height="25" as="geometry" />
        </mxCell>
        <mxCell id="xCqQUK4sBfXE9FT-zBNv-71" value="" style="html=1;points=[];perimeter=orthogonalPerimeter;fontSize=7;align=left;" parent="UjvqswIDRni2z4nogmo8-1" vertex="1">
          <mxGeometry x="50" y="640" width="10" height="130" as="geometry" />
        </mxCell>
        <mxCell id="xCqQUK4sBfXE9FT-zBNv-72" value="连接DS" style="edgeStyle=orthogonalEdgeStyle;html=1;align=left;spacingLeft=2;endArrow=block;rounded=0;entryX=1;entryY=0;fontSize=7;" parent="UjvqswIDRni2z4nogmo8-1" target="xCqQUK4sBfXE9FT-zBNv-71" edge="1">
          <mxGeometry relative="1" as="geometry">
            <mxPoint x="55" y="630" as="sourcePoint" />
            <Array as="points">
              <mxPoint x="85" y="630" />
            </Array>
          </mxGeometry>
        </mxCell>
        <mxCell id="xCqQUK4sBfXE9FT-zBNv-95" value="" style="html=1;points=[];perimeter=orthogonalPerimeter;fontSize=7;align=left;" parent="UjvqswIDRni2z4nogmo8-1" vertex="1">
          <mxGeometry x="50" y="810" width="10" height="60" as="geometry" />
        </mxCell>
        <mxCell id="xCqQUK4sBfXE9FT-zBNv-98" value="" style="html=1;points=[];perimeter=orthogonalPerimeter;fontSize=7;align=left;" parent="UjvqswIDRni2z4nogmo8-1" vertex="1">
          <mxGeometry x="55" y="830" width="10" height="20" as="geometry" />
        </mxCell>
        <mxCell id="xCqQUK4sBfXE9FT-zBNv-99" value="返回局外Level" style="edgeStyle=orthogonalEdgeStyle;html=1;align=left;spacingLeft=2;endArrow=block;rounded=0;entryX=1;entryY=0;fontSize=7;" parent="UjvqswIDRni2z4nogmo8-1" target="xCqQUK4sBfXE9FT-zBNv-98" edge="1">
          <mxGeometry relative="1" as="geometry">
            <mxPoint x="60" y="820" as="sourcePoint" />
            <Array as="points">
              <mxPoint x="90" y="820" />
            </Array>
          </mxGeometry>
        </mxCell>
        <mxCell id="UjvqswIDRni2z4nogmo8-2" value=":Nakama" style="shape=umlLifeline;perimeter=lifelinePerimeter;whiteSpace=wrap;html=1;container=1;collapsible=0;recursiveResize=0;outlineConnect=0;" parent="1" vertex="1">
          <mxGeometry x="430" y="40" width="100" height="1010" as="geometry" />
        </mxCell>
        <mxCell id="UjvqswIDRni2z4nogmo8-8" value="" style="html=1;points=[];perimeter=orthogonalPerimeter;" parent="UjvqswIDRni2z4nogmo8-2" vertex="1">
          <mxGeometry x="45" y="140" width="10" height="40" as="geometry" />
        </mxCell>
        <mxCell id="UjvqswIDRni2z4nogmo8-13" value="" style="html=1;points=[];perimeter=orthogonalPerimeter;" parent="UjvqswIDRni2z4nogmo8-2" vertex="1">
          <mxGeometry x="50" y="155" width="10" height="15" as="geometry" />
        </mxCell>
        <mxCell id="UjvqswIDRni2z4nogmo8-14" value="Authenticate" style="edgeStyle=orthogonalEdgeStyle;html=1;align=left;spacingLeft=2;endArrow=block;rounded=0;entryX=1;entryY=0;" parent="UjvqswIDRni2z4nogmo8-2" target="UjvqswIDRni2z4nogmo8-13" edge="1">
          <mxGeometry relative="1" as="geometry">
            <mxPoint x="55" y="145" as="sourcePoint" />
            <Array as="points">
              <mxPoint x="85" y="145" />
            </Array>
          </mxGeometry>
        </mxCell>
        <mxCell id="AEDSpsAWkbBHVtcApewd-3" value="" style="html=1;points=[];perimeter=orthogonalPerimeter;" parent="UjvqswIDRni2z4nogmo8-2" vertex="1">
          <mxGeometry x="45" y="230" width="10" height="70" as="geometry" />
        </mxCell>
        <mxCell id="AEDSpsAWkbBHVtcApewd-6" value="" style="html=1;points=[];perimeter=orthogonalPerimeter;" parent="UjvqswIDRni2z4nogmo8-2" vertex="1">
          <mxGeometry x="50" y="244" width="10" height="46" as="geometry" />
        </mxCell>
        <mxCell id="AEDSpsAWkbBHVtcApewd-7" value="CreateMatch" style="edgeStyle=orthogonalEdgeStyle;html=1;align=left;spacingLeft=2;endArrow=block;rounded=0;entryX=1;entryY=0;" parent="UjvqswIDRni2z4nogmo8-2" target="AEDSpsAWkbBHVtcApewd-6" edge="1">
          <mxGeometry relative="1" as="geometry">
            <mxPoint x="55" y="234" as="sourcePoint" />
            <Array as="points">
              <mxPoint x="85" y="234" />
            </Array>
          </mxGeometry>
        </mxCell>
        <mxCell id="AEDSpsAWkbBHVtcApewd-15" value="" style="html=1;points=[];perimeter=orthogonalPerimeter;" parent="UjvqswIDRni2z4nogmo8-2" vertex="1">
          <mxGeometry x="45" y="69" width="10" height="36" as="geometry" />
        </mxCell>
        <mxCell id="xCqQUK4sBfXE9FT-zBNv-8" value="" style="html=1;points=[];perimeter=orthogonalPerimeter;" parent="UjvqswIDRni2z4nogmo8-2" vertex="1">
          <mxGeometry x="50" y="83" width="10" height="12" as="geometry" />
        </mxCell>
        <mxCell id="xCqQUK4sBfXE9FT-zBNv-9" value="RegisterDsLancher(url)" style="edgeStyle=orthogonalEdgeStyle;html=1;align=left;spacingLeft=2;endArrow=block;rounded=0;entryX=1;entryY=0;" parent="UjvqswIDRni2z4nogmo8-2" target="xCqQUK4sBfXE9FT-zBNv-8" edge="1">
          <mxGeometry relative="1" as="geometry">
            <mxPoint x="55" y="75" as="sourcePoint" />
            <Array as="points">
              <mxPoint x="85" y="75" />
            </Array>
          </mxGeometry>
        </mxCell>
        <mxCell id="xCqQUK4sBfXE9FT-zBNv-23" value="" style="html=1;points=[];perimeter=orthogonalPerimeter;fontSize=7;align=left;" parent="UjvqswIDRni2z4nogmo8-2" vertex="1">
          <mxGeometry x="55" y="260" width="10" height="20" as="geometry" />
        </mxCell>
        <mxCell id="xCqQUK4sBfXE9FT-zBNv-24" value="&lt;span style=&quot;font-size: 11px&quot;&gt;EnqueueMatchID&lt;/span&gt;" style="edgeStyle=orthogonalEdgeStyle;html=1;align=left;spacingLeft=2;endArrow=block;rounded=0;entryX=1;entryY=0;fontSize=7;" parent="UjvqswIDRni2z4nogmo8-2" target="xCqQUK4sBfXE9FT-zBNv-23" edge="1">
          <mxGeometry relative="1" as="geometry">
            <mxPoint x="60" y="250" as="sourcePoint" />
            <Array as="points">
              <mxPoint x="90" y="250" />
            </Array>
          </mxGeometry>
        </mxCell>
        <mxCell id="xCqQUK4sBfXE9FT-zBNv-29" value="" style="html=1;points=[];perimeter=orthogonalPerimeter;fontSize=7;align=left;" parent="UjvqswIDRni2z4nogmo8-2" vertex="1">
          <mxGeometry x="45" y="350" width="10" height="40" as="geometry" />
        </mxCell>
        <mxCell id="xCqQUK4sBfXE9FT-zBNv-35" value="" style="html=1;points=[];perimeter=orthogonalPerimeter;fontSize=7;align=left;" parent="UjvqswIDRni2z4nogmo8-2" vertex="1">
          <mxGeometry x="50" y="370" width="10" height="10" as="geometry" />
        </mxCell>
        <mxCell id="xCqQUK4sBfXE9FT-zBNv-36" value="DeququeMatchID" style="edgeStyle=orthogonalEdgeStyle;html=1;align=left;spacingLeft=2;endArrow=block;rounded=0;entryX=1;entryY=0;fontSize=7;" parent="UjvqswIDRni2z4nogmo8-2" target="xCqQUK4sBfXE9FT-zBNv-35" edge="1">
          <mxGeometry relative="1" as="geometry">
            <mxPoint x="55" y="360" as="sourcePoint" />
            <Array as="points">
              <mxPoint x="85" y="360" />
            </Array>
          </mxGeometry>
        </mxCell>
        <mxCell id="xCqQUK4sBfXE9FT-zBNv-46" value="" style="html=1;points=[];perimeter=orthogonalPerimeter;fontSize=7;align=left;" parent="UjvqswIDRni2z4nogmo8-2" vertex="1">
          <mxGeometry x="45" y="488" width="10" height="22" as="geometry" />
        </mxCell>
        <mxCell id="xCqQUK4sBfXE9FT-zBNv-53" value="" style="html=1;points=[];perimeter=orthogonalPerimeter;fontSize=7;align=left;" parent="UjvqswIDRni2z4nogmo8-2" vertex="1">
          <mxGeometry x="45" y="545" width="10" height="65" as="geometry" />
        </mxCell>
        <mxCell id="xCqQUK4sBfXE9FT-zBNv-56" value="" style="html=1;points=[];perimeter=orthogonalPerimeter;fontSize=7;align=left;" parent="UjvqswIDRni2z4nogmo8-2" vertex="1">
          <mxGeometry x="50" y="566" width="10" height="14" as="geometry" />
        </mxCell>
        <mxCell id="xCqQUK4sBfXE9FT-zBNv-57" value="EnqueueReadyMatchID" style="edgeStyle=orthogonalEdgeStyle;html=1;align=left;spacingLeft=2;endArrow=block;rounded=0;entryX=1;entryY=0;fontSize=7;" parent="UjvqswIDRni2z4nogmo8-2" target="xCqQUK4sBfXE9FT-zBNv-56" edge="1">
          <mxGeometry relative="1" as="geometry">
            <mxPoint x="55" y="556" as="sourcePoint" />
            <Array as="points">
              <mxPoint x="85" y="556" />
            </Array>
          </mxGeometry>
        </mxCell>
        <mxCell id="xCqQUK4sBfXE9FT-zBNv-86" value="" style="html=1;points=[];perimeter=orthogonalPerimeter;fontSize=7;align=left;" parent="UjvqswIDRni2z4nogmo8-2" vertex="1">
          <mxGeometry x="45" y="805" width="10" height="60" as="geometry" />
        </mxCell>
        <mxCell id="UjvqswIDRni2z4nogmo8-3" value=":DS(Child)" style="shape=umlLifeline;perimeter=lifelinePerimeter;whiteSpace=wrap;html=1;container=1;collapsible=0;recursiveResize=0;outlineConnect=0;" parent="1" vertex="1">
          <mxGeometry x="1030" y="40" width="100" height="1060" as="geometry" />
        </mxCell>
        <mxCell id="xCqQUK4sBfXE9FT-zBNv-20" value="" style="html=1;points=[];perimeter=orthogonalPerimeter;fontSize=7;align=left;" parent="UjvqswIDRni2z4nogmo8-3" vertex="1">
          <mxGeometry x="45" y="420" width="10" height="20" as="geometry" />
        </mxCell>
        <mxCell id="xCqQUK4sBfXE9FT-zBNv-43" value="" style="html=1;points=[];perimeter=orthogonalPerimeter;fontSize=7;align=left;" parent="UjvqswIDRni2z4nogmo8-3" vertex="1">
          <mxGeometry x="45" y="470" width="10" height="120" as="geometry" />
        </mxCell>
        <mxCell id="xCqQUK4sBfXE9FT-zBNv-44" value="" style="html=1;points=[];perimeter=orthogonalPerimeter;fontSize=7;align=left;" parent="UjvqswIDRni2z4nogmo8-3" vertex="1">
          <mxGeometry x="50" y="484" width="10" height="86" as="geometry" />
        </mxCell>
        <mxCell id="xCqQUK4sBfXE9FT-zBNv-45" value="请求玩家列表" style="edgeStyle=orthogonalEdgeStyle;html=1;align=left;spacingLeft=2;endArrow=block;rounded=0;entryX=1;entryY=0;fontSize=7;" parent="UjvqswIDRni2z4nogmo8-3" target="xCqQUK4sBfXE9FT-zBNv-44" edge="1">
          <mxGeometry relative="1" as="geometry">
            <mxPoint x="55" y="474" as="sourcePoint" />
            <Array as="points">
              <mxPoint x="85" y="474" />
            </Array>
          </mxGeometry>
        </mxCell>
        <mxCell id="xCqQUK4sBfXE9FT-zBNv-51" value="" style="html=1;points=[];perimeter=orthogonalPerimeter;fontSize=7;align=left;" parent="UjvqswIDRni2z4nogmo8-3" vertex="1">
          <mxGeometry x="55" y="525" width="10" height="15" as="geometry" />
        </mxCell>
        <mxCell id="xCqQUK4sBfXE9FT-zBNv-52" value="StorePlayerInfos()" style="edgeStyle=orthogonalEdgeStyle;html=1;align=left;spacingLeft=2;endArrow=block;rounded=0;entryX=1;entryY=0;fontSize=7;" parent="UjvqswIDRni2z4nogmo8-3" target="xCqQUK4sBfXE9FT-zBNv-51" edge="1">
          <mxGeometry relative="1" as="geometry">
            <mxPoint x="60" y="515" as="sourcePoint" />
            <Array as="points">
              <mxPoint x="90" y="515" />
            </Array>
          </mxGeometry>
        </mxCell>
        <mxCell id="xCqQUK4sBfXE9FT-zBNv-74" value="" style="html=1;points=[];perimeter=orthogonalPerimeter;fontSize=7;align=left;" parent="UjvqswIDRni2z4nogmo8-3" vertex="1">
          <mxGeometry x="45" y="650" width="10" height="100" as="geometry" />
        </mxCell>
        <mxCell id="xCqQUK4sBfXE9FT-zBNv-77" value="" style="html=1;points=[];perimeter=orthogonalPerimeter;fontSize=7;align=left;" parent="UjvqswIDRni2z4nogmo8-3" vertex="1">
          <mxGeometry x="50" y="664" width="10" height="66" as="geometry" />
        </mxCell>
        <mxCell id="xCqQUK4sBfXE9FT-zBNv-78" value="InitNewPlayer()" style="edgeStyle=orthogonalEdgeStyle;html=1;align=left;spacingLeft=2;endArrow=block;rounded=0;entryX=1;entryY=0;fontSize=7;" parent="UjvqswIDRni2z4nogmo8-3" target="xCqQUK4sBfXE9FT-zBNv-77" edge="1">
          <mxGeometry relative="1" as="geometry">
            <mxPoint x="55" y="654" as="sourcePoint" />
            <Array as="points">
              <mxPoint x="85" y="654" />
            </Array>
          </mxGeometry>
        </mxCell>
        <mxCell id="xCqQUK4sBfXE9FT-zBNv-79" value="" style="html=1;points=[];perimeter=orthogonalPerimeter;fontSize=7;align=left;" parent="UjvqswIDRni2z4nogmo8-3" vertex="1">
          <mxGeometry x="55" y="705" width="10" height="15" as="geometry" />
        </mxCell>
        <mxCell id="xCqQUK4sBfXE9FT-zBNv-80" value="PlayerState-&amp;gt;SetUin(UserID)" style="edgeStyle=orthogonalEdgeStyle;html=1;align=left;spacingLeft=2;endArrow=block;rounded=0;entryX=1;entryY=0;fontSize=7;" parent="UjvqswIDRni2z4nogmo8-3" target="xCqQUK4sBfXE9FT-zBNv-79" edge="1">
          <mxGeometry relative="1" as="geometry">
            <mxPoint x="60" y="695" as="sourcePoint" />
            <Array as="points">
              <mxPoint x="90" y="695" />
            </Array>
          </mxGeometry>
        </mxCell>
        <mxCell id="xCqQUK4sBfXE9FT-zBNv-81" value="" style="html=1;points=[];perimeter=orthogonalPerimeter;fontSize=7;align=left;" parent="UjvqswIDRni2z4nogmo8-3" vertex="1">
          <mxGeometry x="55" y="680" width="10" height="10" as="geometry" />
        </mxCell>
        <mxCell id="xCqQUK4sBfXE9FT-zBNv-82" value="VerifyUserIDAndToken()" style="edgeStyle=orthogonalEdgeStyle;html=1;align=left;spacingLeft=2;endArrow=block;rounded=0;entryX=1;entryY=0;fontSize=7;" parent="UjvqswIDRni2z4nogmo8-3" target="xCqQUK4sBfXE9FT-zBNv-81" edge="1">
          <mxGeometry relative="1" as="geometry">
            <mxPoint x="60" y="670" as="sourcePoint" />
            <Array as="points">
              <mxPoint x="90" y="670" />
            </Array>
          </mxGeometry>
        </mxCell>
        <mxCell id="xCqQUK4sBfXE9FT-zBNv-83" value="" style="html=1;points=[];perimeter=orthogonalPerimeter;fontSize=7;align=left;" parent="UjvqswIDRni2z4nogmo8-3" vertex="1">
          <mxGeometry x="45" y="780" width="10" height="160" as="geometry" />
        </mxCell>
        <mxCell id="xCqQUK4sBfXE9FT-zBNv-84" value="" style="html=1;points=[];perimeter=orthogonalPerimeter;fontSize=7;align=left;" parent="UjvqswIDRni2z4nogmo8-3" vertex="1">
          <mxGeometry x="50" y="794" width="10" height="136" as="geometry" />
        </mxCell>
        <mxCell id="xCqQUK4sBfXE9FT-zBNv-85" value="MatchEnd()" style="edgeStyle=orthogonalEdgeStyle;html=1;align=left;spacingLeft=2;endArrow=block;rounded=0;entryX=1;entryY=0;fontSize=7;" parent="UjvqswIDRni2z4nogmo8-3" target="xCqQUK4sBfXE9FT-zBNv-84" edge="1">
          <mxGeometry relative="1" as="geometry">
            <mxPoint x="55" y="784" as="sourcePoint" />
            <Array as="points">
              <mxPoint x="85" y="784" />
            </Array>
          </mxGeometry>
        </mxCell>
        <mxCell id="xCqQUK4sBfXE9FT-zBNv-100" value="" style="html=1;points=[];perimeter=orthogonalPerimeter;fontSize=7;align=left;" parent="UjvqswIDRni2z4nogmo8-3" vertex="1">
          <mxGeometry x="55" y="880" width="10" height="40" as="geometry" />
        </mxCell>
        <mxCell id="xCqQUK4sBfXE9FT-zBNv-101" value="Exit()" style="edgeStyle=orthogonalEdgeStyle;html=1;align=left;spacingLeft=2;endArrow=block;rounded=0;entryX=1;entryY=0;fontSize=7;" parent="UjvqswIDRni2z4nogmo8-3" target="xCqQUK4sBfXE9FT-zBNv-100" edge="1">
          <mxGeometry relative="1" as="geometry">
            <mxPoint x="60" y="870" as="sourcePoint" />
            <Array as="points">
              <mxPoint x="90" y="870" />
            </Array>
          </mxGeometry>
        </mxCell>
        <mxCell id="UjvqswIDRni2z4nogmo8-9" value="邮箱密码验证" style="html=1;verticalAlign=bottom;endArrow=block;entryX=0;entryY=0;" parent="1" target="UjvqswIDRni2z4nogmo8-8" edge="1">
          <mxGeometry relative="1" as="geometry">
            <mxPoint x="135" y="180" as="sourcePoint" />
          </mxGeometry>
        </mxCell>
        <mxCell id="UjvqswIDRni2z4nogmo8-10" value="NakamaSession(UserID/Token等)" style="html=1;verticalAlign=bottom;endArrow=open;dashed=1;endSize=8;exitX=0;exitY=0.95;" parent="1" source="UjvqswIDRni2z4nogmo8-8" target="UjvqswIDRni2z4nogmo8-6" edge="1">
          <mxGeometry relative="1" as="geometry">
            <mxPoint x="150" y="218" as="targetPoint" />
          </mxGeometry>
        </mxCell>
        <mxCell id="AEDSpsAWkbBHVtcApewd-4" value="Match" style="html=1;verticalAlign=bottom;endArrow=block;entryX=0;entryY=0;" parent="1" source="AEDSpsAWkbBHVtcApewd-1" target="AEDSpsAWkbBHVtcApewd-3" edge="1">
          <mxGeometry relative="1" as="geometry">
            <mxPoint x="405" y="270" as="sourcePoint" />
          </mxGeometry>
        </mxCell>
        <mxCell id="AEDSpsAWkbBHVtcApewd-16" value="(RestAPI) RegisterDsLancher" style="html=1;verticalAlign=bottom;endArrow=block;entryX=1;entryY=0;" parent="1" target="AEDSpsAWkbBHVtcApewd-15" edge="1">
          <mxGeometry relative="1" as="geometry">
            <mxPoint x="810" y="110" as="sourcePoint" />
          </mxGeometry>
        </mxCell>
        <mxCell id="AEDSpsAWkbBHVtcApewd-17" value="return" style="html=1;verticalAlign=bottom;endArrow=open;dashed=1;endSize=8;exitX=1;exitY=0.95;" parent="1" source="AEDSpsAWkbBHVtcApewd-15" edge="1">
          <mxGeometry relative="1" as="geometry">
            <mxPoint x="810" y="143.2" as="targetPoint" />
          </mxGeometry>
        </mxCell>
        <mxCell id="xCqQUK4sBfXE9FT-zBNv-19" value="保存到StoregeObject" style="text;html=1;strokeColor=none;fillColor=none;align=left;verticalAlign=middle;whiteSpace=wrap;rounded=0;fontSize=7;" parent="1" vertex="1">
          <mxGeometry x="520" y="122" width="90" height="20" as="geometry" />
        </mxCell>
        <mxCell id="xCqQUK4sBfXE9FT-zBNv-21" value="Fork 传入MatchID和Nakama地址" style="html=1;verticalAlign=bottom;endArrow=block;entryX=0;entryY=0;fontSize=7;" parent="1" source="xCqQUK4sBfXE9FT-zBNv-37" target="xCqQUK4sBfXE9FT-zBNv-20" edge="1">
          <mxGeometry relative="1" as="geometry">
            <mxPoint x="1005" y="640" as="sourcePoint" />
          </mxGeometry>
        </mxCell>
        <mxCell id="xCqQUK4sBfXE9FT-zBNv-22" value="Handle" style="html=1;verticalAlign=bottom;endArrow=open;dashed=1;endSize=8;exitX=0;exitY=0.95;fontSize=7;" parent="1" source="xCqQUK4sBfXE9FT-zBNv-20" target="xCqQUK4sBfXE9FT-zBNv-37" edge="1">
          <mxGeometry relative="1" as="geometry">
            <mxPoint x="810" y="570" as="targetPoint" />
          </mxGeometry>
        </mxCell>
        <mxCell id="AEDSpsAWkbBHVtcApewd-5" value="MatchID,TeamInfo" style="html=1;verticalAlign=bottom;endArrow=open;dashed=1;endSize=8;exitX=0;exitY=0.95;" parent="1" source="AEDSpsAWkbBHVtcApewd-3" target="AEDSpsAWkbBHVtcApewd-1" edge="1">
          <mxGeometry relative="1" as="geometry">
            <mxPoint x="405" y="346" as="targetPoint" />
          </mxGeometry>
        </mxCell>
        <mxCell id="xCqQUK4sBfXE9FT-zBNv-30" value="请求分配MatchID" style="html=1;verticalAlign=bottom;endArrow=block;entryX=1;entryY=0;fontSize=7;" parent="1" source="xCqQUK4sBfXE9FT-zBNv-27" target="xCqQUK4sBfXE9FT-zBNv-29" edge="1">
          <mxGeometry relative="1" as="geometry">
            <mxPoint x="545" y="390" as="sourcePoint" />
          </mxGeometry>
        </mxCell>
        <mxCell id="xCqQUK4sBfXE9FT-zBNv-32" value="保存到StoregeObject" style="text;html=1;strokeColor=none;fillColor=none;align=left;verticalAlign=middle;whiteSpace=wrap;rounded=0;fontSize=7;" parent="1" vertex="1">
          <mxGeometry x="520" y="300" width="90" height="20" as="geometry" />
        </mxCell>
        <mxCell id="xCqQUK4sBfXE9FT-zBNv-31" value="返回MatchID" style="html=1;verticalAlign=bottom;endArrow=open;dashed=1;endSize=8;exitX=1;exitY=0.95;fontSize=7;" parent="1" source="xCqQUK4sBfXE9FT-zBNv-29" target="xCqQUK4sBfXE9FT-zBNv-27" edge="1">
          <mxGeometry relative="1" as="geometry">
            <mxPoint x="545" y="447" as="targetPoint" />
          </mxGeometry>
        </mxCell>
        <mxCell id="xCqQUK4sBfXE9FT-zBNv-47" value="(RestAPI) RequestMatchPlayerInfos(MatchID)" style="html=1;verticalAlign=bottom;endArrow=block;entryX=1;entryY=0;fontSize=7;" parent="1" source="xCqQUK4sBfXE9FT-zBNv-44" target="xCqQUK4sBfXE9FT-zBNv-46" edge="1">
          <mxGeometry relative="1" as="geometry">
            <mxPoint x="545" y="525" as="sourcePoint" />
          </mxGeometry>
        </mxCell>
        <mxCell id="xCqQUK4sBfXE9FT-zBNv-48" value="MatchPlayerInfos" style="html=1;verticalAlign=bottom;endArrow=open;dashed=1;endSize=8;exitX=1;exitY=0.95;fontSize=7;" parent="1" source="xCqQUK4sBfXE9FT-zBNv-46" target="xCqQUK4sBfXE9FT-zBNv-44" edge="1">
          <mxGeometry relative="1" as="geometry">
            <mxPoint x="545" y="582" as="targetPoint" />
          </mxGeometry>
        </mxCell>
        <mxCell id="xCqQUK4sBfXE9FT-zBNv-54" value="RestAPI&amp;nbsp; DSReady(url)" style="html=1;verticalAlign=middle;endArrow=block;entryX=1;entryY=0;fontSize=7;" parent="1" source="xCqQUK4sBfXE9FT-zBNv-44" target="xCqQUK4sBfXE9FT-zBNv-53" edge="1">
          <mxGeometry relative="1" as="geometry">
            <mxPoint x="545" y="585" as="sourcePoint" />
          </mxGeometry>
        </mxCell>
        <mxCell id="xCqQUK4sBfXE9FT-zBNv-69" value="DSReady 返回DS Url" style="html=1;verticalAlign=bottom;endArrow=block;entryX=1;entryY=0;fontSize=7;" parent="1" source="xCqQUK4sBfXE9FT-zBNv-53" target="xCqQUK4sBfXE9FT-zBNv-68" edge="1">
          <mxGeometry relative="1" as="geometry">
            <mxPoint x="200" y="620" as="sourcePoint" />
          </mxGeometry>
        </mxCell>
        <mxCell id="xCqQUK4sBfXE9FT-zBNv-75" value="OpenLevel(DSUrl?UserID?Token?)" style="html=1;verticalAlign=bottom;endArrow=block;entryX=0;entryY=0;fontSize=7;" parent="1" source="xCqQUK4sBfXE9FT-zBNv-71" target="xCqQUK4sBfXE9FT-zBNv-74" edge="1">
          <mxGeometry relative="1" as="geometry">
            <mxPoint x="1005" y="690" as="sourcePoint" />
          </mxGeometry>
        </mxCell>
        <mxCell id="xCqQUK4sBfXE9FT-zBNv-76" value="return" style="html=1;verticalAlign=bottom;endArrow=open;dashed=1;endSize=8;exitX=0;exitY=0.95;fontSize=7;" parent="1" source="xCqQUK4sBfXE9FT-zBNv-74" target="xCqQUK4sBfXE9FT-zBNv-71" edge="1">
          <mxGeometry relative="1" as="geometry">
            <mxPoint x="1005" y="766" as="targetPoint" />
          </mxGeometry>
        </mxCell>
        <mxCell id="xCqQUK4sBfXE9FT-zBNv-87" value="RequestEndMatch()" style="html=1;verticalAlign=bottom;endArrow=block;entryX=1;entryY=0;fontSize=7;" parent="1" source="xCqQUK4sBfXE9FT-zBNv-84" target="xCqQUK4sBfXE9FT-zBNv-86" edge="1">
          <mxGeometry relative="1" as="geometry">
            <mxPoint x="545" y="845" as="sourcePoint" />
          </mxGeometry>
        </mxCell>
        <mxCell id="xCqQUK4sBfXE9FT-zBNv-88" value="RequestEndMatchReturn()" style="html=1;verticalAlign=bottom;endArrow=open;dashed=1;endSize=8;exitX=1;exitY=0.95;fontSize=7;" parent="1" source="xCqQUK4sBfXE9FT-zBNv-86" target="xCqQUK4sBfXE9FT-zBNv-84" edge="1">
          <mxGeometry relative="1" as="geometry">
            <mxPoint x="545" y="902" as="targetPoint" />
          </mxGeometry>
        </mxCell>
        <mxCell id="xCqQUK4sBfXE9FT-zBNv-96" value="MatchEnd" style="html=1;verticalAlign=bottom;endArrow=block;entryX=1;entryY=0;fontSize=7;" parent="1" source="xCqQUK4sBfXE9FT-zBNv-86" target="xCqQUK4sBfXE9FT-zBNv-95" edge="1">
          <mxGeometry relative="1" as="geometry">
            <mxPoint x="200" y="850" as="sourcePoint" />
          </mxGeometry>
        </mxCell>
        <mxCell id="p0eMWs94MVFP-XdS0-qt-1" value="" style="group" vertex="1" connectable="0" parent="1">
          <mxGeometry x="760" y="40" width="100" height="670" as="geometry" />
        </mxCell>
        <mxCell id="xCqQUK4sBfXE9FT-zBNv-5" value=":Ds(Parent)" style="shape=umlLifeline;perimeter=lifelinePerimeter;whiteSpace=wrap;html=1;container=0;collapsible=0;recursiveResize=0;outlineConnect=0;" parent="p0eMWs94MVFP-XdS0-qt-1" vertex="1">
          <mxGeometry width="100" height="670" as="geometry" />
        </mxCell>
        <mxCell id="xCqQUK4sBfXE9FT-zBNv-6" value="" style="html=1;points=[];perimeter=orthogonalPerimeter;" parent="p0eMWs94MVFP-XdS0-qt-1" vertex="1">
          <mxGeometry x="45" y="50" width="10" height="70" as="geometry" />
        </mxCell>
        <mxCell id="xCqQUK4sBfXE9FT-zBNv-10" value="" style="html=1;points=[];perimeter=orthogonalPerimeter;" parent="p0eMWs94MVFP-XdS0-qt-1" vertex="1">
          <mxGeometry x="50" y="65" width="10" height="45" as="geometry" />
        </mxCell>
        <mxCell id="xCqQUK4sBfXE9FT-zBNv-11" value="Init()" style="edgeStyle=orthogonalEdgeStyle;html=1;align=left;spacingLeft=2;endArrow=block;rounded=0;entryX=1;entryY=0;" parent="p0eMWs94MVFP-XdS0-qt-1" target="xCqQUK4sBfXE9FT-zBNv-10" edge="1">
          <mxGeometry relative="1" as="geometry">
            <mxPoint x="55" y="55" as="sourcePoint" />
            <Array as="points">
              <mxPoint x="85" y="55" />
            </Array>
          </mxGeometry>
        </mxCell>
        <mxCell id="xCqQUK4sBfXE9FT-zBNv-27" value="" style="html=1;points=[];perimeter=orthogonalPerimeter;fontSize=7;align=left;" parent="p0eMWs94MVFP-XdS0-qt-1" vertex="1">
          <mxGeometry x="45" y="340" width="10" height="120" as="geometry" />
        </mxCell>
        <mxCell id="xCqQUK4sBfXE9FT-zBNv-28" value="轮询(1s)" style="edgeStyle=orthogonalEdgeStyle;html=1;align=left;spacingLeft=2;endArrow=block;rounded=0;entryX=1;entryY=0;fontSize=7;" parent="p0eMWs94MVFP-XdS0-qt-1" target="xCqQUK4sBfXE9FT-zBNv-27" edge="1">
          <mxGeometry relative="1" as="geometry">
            <mxPoint x="50" y="330" as="sourcePoint" />
            <Array as="points">
              <mxPoint x="80" y="330" />
            </Array>
          </mxGeometry>
        </mxCell>
        <mxCell id="xCqQUK4sBfXE9FT-zBNv-37" value="" style="html=1;points=[];perimeter=orthogonalPerimeter;fontSize=7;align=left;" parent="p0eMWs94MVFP-XdS0-qt-1" vertex="1">
          <mxGeometry x="50" y="400" width="10" height="50" as="geometry" />
        </mxCell>
        <mxCell id="xCqQUK4sBfXE9FT-zBNv-38" value="启动新的DS实例" style="edgeStyle=orthogonalEdgeStyle;html=1;align=left;spacingLeft=2;endArrow=block;rounded=0;entryX=1;entryY=0;fontSize=7;" parent="p0eMWs94MVFP-XdS0-qt-1" target="xCqQUK4sBfXE9FT-zBNv-37" edge="1">
          <mxGeometry relative="1" as="geometry">
            <mxPoint x="55" y="390" as="sourcePoint" />
            <Array as="points">
              <mxPoint x="85" y="390" />
            </Array>
          </mxGeometry>
        </mxCell>
      </root>
    </mxGraphModel>
  </diagram>
</mxfile>
